<svg width="30" height="30" viewBox="0 0 30 30" fill="none" xmlns="http://www.w3.org/2000/svg">
<rect width="30" height="30" rx="5" fill="white"/>
<path fill-rule="evenodd" clip-rule="evenodd" d="M21.0881 9.14007L14.8954 9L8.70272 9.14007C7.5552 9.16603 6.58359 9.99413 6.3761 11.123C5.87463 13.8515 5.87463 16.6485 6.3761 19.377C6.58359 20.5059 7.5552 21.334 8.70272 21.3599L14.8954 21.5L21.0881 21.3599C22.2356 21.334 23.2073 20.5059 23.4147 19.377C23.9162 16.6485 23.9162 13.8515 23.4147 11.123C23.2073 9.99413 22.2356 9.16603 21.0881 9.14007ZM8.73196 10.4328L14.8954 10.2934L21.0589 10.4328C21.5936 10.4449 22.0463 10.8308 22.143 11.3568C22.2751 12.0757 22.3703 12.7997 22.4287 13.5259H7.36219C7.42051 12.7997 7.51574 12.0757 7.64787 11.3568C7.74455 10.8308 8.19727 10.4449 8.73196 10.4328ZM7.29307 15.25C7.29307 16.5531 7.41134 17.8563 7.64787 19.1432C7.74455 19.6692 8.19727 20.0551 8.73196 20.0672L14.8954 20.2066L21.0589 20.0672C21.5936 20.0551 22.0463 19.6692 22.143 19.1432C22.3795 17.8563 22.4978 16.5531 22.4978 15.25H7.29307Z" fill="black"/>
</svg>
