<svg width="30" height="30" viewBox="0 0 30 30" fill="none" xmlns="http://www.w3.org/2000/svg">
<path d="M4.54469 14.1163C4.31035 14.3507 4.17871 14.6686 4.17871 15.0001C4.17871 15.3315 4.31035 15.6494 4.54469 15.8838L11.6159 22.9551C11.7313 23.0744 11.8692 23.1697 12.0217 23.2352C12.1742 23.3007 12.3382 23.3352 12.5042 23.3366C12.6702 23.3381 12.8348 23.3064 12.9884 23.2436C13.142 23.1807 13.2816 23.0879 13.3989 22.9706C13.5163 22.8532 13.6091 22.7136 13.672 22.56C13.7348 22.4064 13.7664 22.2418 13.765 22.0758C13.7636 21.9098 13.7291 21.7458 13.6636 21.5933C13.5981 21.4408 13.5028 21.3029 13.3834 21.1876L8.44594 16.2501L24.9997 16.2501C25.3312 16.2501 25.6492 16.1184 25.8836 15.8839C26.118 15.6495 26.2497 15.3316 26.2497 15.0001C26.2497 14.6685 26.118 14.3506 25.8836 14.1162C25.6492 13.8818 25.3312 13.7501 24.9997 13.7501L8.44594 13.7501L13.3834 8.81256C13.6111 8.5768 13.7371 8.26105 13.7343 7.93331C13.7314 7.60556 13.6 7.29205 13.3682 7.06029C13.1365 6.82853 12.8229 6.69706 12.4952 6.69421C12.1674 6.69137 11.8517 6.81736 11.6159 7.04506L4.54469 14.1163Z" fill="black"/>
</svg>
