<svg width="28" height="28" viewBox="0 0 28 28" fill="none" xmlns="http://www.w3.org/2000/svg">
<g opacity="0.3">
<path d="M11.2103 7.24198L17.3579 13.4883C17.4927 13.6246 17.5684 13.8085 17.5684 14.0002C17.5684 14.192 17.4927 14.3759 17.3579 14.5122L11.2116 20.7585C11.0768 20.8956 11.0013 21.0802 11.0013 21.2725C11.0013 21.4647 11.0768 21.6493 11.2116 21.7864C11.2774 21.854 11.3561 21.9076 11.443 21.9443C11.5299 21.9809 11.6233 21.9998 11.7176 21.9998C11.8119 21.9998 11.9052 21.9809 11.9921 21.9443C12.079 21.9076 12.1577 21.854 12.2235 21.7864L18.3698 15.5415C18.7737 15.1301 19 14.5767 19 14.0002C19 13.4238 18.7737 12.8703 18.3698 12.459L12.2235 6.21404C12.1577 6.14631 12.0789 6.09247 11.9919 6.05571C11.9049 6.01894 11.8114 6 11.7169 6C11.6224 6 11.5289 6.01894 11.4419 6.05571C11.3549 6.09247 11.2761 6.14631 11.2103 6.21404C11.0755 6.35117 11 6.53575 11 6.72801C11 6.92027 11.0755 7.10485 11.2103 7.24198Z" fill="#4A5161" fill-opacity="0.6"/>
</g>
</svg>
