<svg width="25" height="24" viewBox="0 0 25 24" fill="none" xmlns="http://www.w3.org/2000/svg">
<path d="M16.4545 9.69062H9.54546C8.67506 9.69062 7.84032 10.0464 7.22486 10.6798C6.6094 11.3131 6.26364 12.1721 6.26364 13.0678V13.7788C6.26364 14.6745 6.6094 15.5335 7.22486 16.1669C7.84032 16.8002 8.67506 17.156 9.54546 17.156H16.4545C17.3249 17.156 18.1597 16.8002 18.7751 16.1669C19.3906 15.5335 19.7364 14.6745 19.7364 13.7788V13.0678C19.7364 12.1721 19.3906 11.3131 18.7751 10.6798C18.1597 10.0464 17.3249 9.69062 16.4545 9.69062ZM18.7 13.7788C18.7 14.3917 18.4634 14.9794 18.0423 15.4128C17.6212 15.8461 17.0501 16.0895 16.4545 16.0895H9.54546C8.94992 16.0895 8.37878 15.8461 7.95768 15.4128C7.53658 14.9794 7.3 14.3917 7.3 13.7788V13.0678C7.3 12.455 7.53658 11.8672 7.95768 11.4339C8.37878 11.0006 8.94992 10.7571 9.54546 10.7571H16.4545C17.0501 10.7571 17.6212 11.0006 18.0423 11.4339C18.4634 11.8672 18.7 12.455 18.7 13.0678V13.7788ZM19.9091 4.00269C19.312 4.00339 18.7335 4.21594 18.2709 4.60449C17.8084 4.99304 17.4902 5.53382 17.37 6.13566H8.63C8.50214 5.48769 8.14488 4.91172 7.62756 4.51957C7.11025 4.12741 6.46979 3.94706 5.83053 4.0135C5.19126 4.07995 4.59879 4.38847 4.16813 4.87916C3.73747 5.36985 3.49936 6.00771 3.5 6.6689V13.7788C3.50183 15.4282 4.13935 17.0095 5.27269 18.1758C6.40604 19.3421 7.94266 19.9981 9.54546 20H16.4545C18.0573 19.9981 19.594 19.3421 20.7273 18.1758C21.8607 17.0095 22.4982 15.4282 22.5 13.7788V6.6689C22.5 5.96178 22.227 5.28362 21.7411 4.7836C21.2553 4.28359 20.5962 4.00269 19.9091 4.00269ZM21.4636 13.7788C21.462 15.1454 20.9338 16.4556 19.9947 17.4219C19.0557 18.3883 17.7825 18.9319 16.4545 18.9335H9.54546C8.21745 18.9319 6.9443 18.3883 6.00526 17.4219C5.06622 16.4556 4.53796 15.1454 4.53636 13.7788V6.6689C4.53636 6.24463 4.70015 5.83773 4.99168 5.53772C5.28321 5.23772 5.67862 5.06917 6.09091 5.06917C6.5032 5.06917 6.89861 5.23772 7.19014 5.53772C7.48167 5.83773 7.64546 6.24463 7.64546 6.6689C7.64546 6.81033 7.70005 6.94596 7.79723 7.04596C7.89441 7.14597 8.02621 7.20215 8.16364 7.20215H17.8364C17.9738 7.20215 18.1056 7.14597 18.2028 7.04596C18.3 6.94596 18.3545 6.81033 18.3545 6.6689C18.3545 6.24463 18.5183 5.83773 18.8099 5.53772C19.1014 5.23772 19.4968 5.06917 19.9091 5.06917C20.3214 5.06917 20.7168 5.23772 21.0083 5.53772C21.2999 5.83773 21.4636 6.24463 21.4636 6.6689V13.7788ZM10.7545 13.4233C10.7545 13.5991 10.7039 13.7709 10.609 13.9171C10.5141 14.0632 10.3792 14.1771 10.2214 14.2444C10.0636 14.3117 9.88995 14.3293 9.72242 14.295C9.55489 14.2607 9.40101 14.1761 9.28023 14.0518C9.15945 13.9275 9.07719 13.7691 9.04387 13.5967C9.01054 13.4243 9.02765 13.2456 9.09301 13.0832C9.15838 12.9208 9.26907 12.782 9.4111 12.6844C9.55312 12.5867 9.7201 12.5346 9.89091 12.5346C10.12 12.5346 10.3396 12.6282 10.5016 12.7949C10.6636 12.9616 10.7545 13.1876 10.7545 13.4233ZM16.9727 13.4233C16.9727 13.5991 16.9221 13.7709 16.8272 13.9171C16.7323 14.0632 16.5974 14.1771 16.4396 14.2444C16.2818 14.3117 16.1081 14.3293 15.9406 14.295C15.7731 14.2607 15.6192 14.1761 15.4984 14.0518C15.3776 13.9275 15.2954 13.7691 15.262 13.5967C15.2287 13.4243 15.2458 13.2456 15.3112 13.0832C15.3766 12.9208 15.4873 12.782 15.6293 12.6844C15.7713 12.5867 15.9383 12.5346 16.1091 12.5346C16.3381 12.5346 16.5578 12.6282 16.7198 12.7949C16.8817 12.9616 16.9727 13.1876 16.9727 13.4233Z" fill="white"/>
</svg>
