<svg width="41" height="40" viewBox="0 0 41 40" fill="none" xmlns="http://www.w3.org/2000/svg">
<rect width="41" height="40" rx="20" fill="#6D6D6D"/>
<path d="M24.4063 17.3516H16.5938C15.6095 17.3516 14.6657 17.7426 13.9697 18.4385C13.2738 19.1344 12.8828 20.0783 12.8828 21.0625V21.8438C12.8828 22.828 13.2738 23.7719 13.9697 24.4678C14.6657 25.1637 15.6095 25.5547 16.5938 25.5547H24.4063C25.3905 25.5547 26.3343 25.1637 27.0303 24.4678C27.7262 23.7719 28.1172 22.828 28.1172 21.8438V21.0625C28.1172 20.0783 27.7262 19.1344 27.0303 18.4385C26.3343 17.7426 25.3905 17.3516 24.4063 17.3516ZM26.9453 21.8438C26.9453 22.5172 26.6778 23.163 26.2016 23.6392C25.7255 24.1153 25.0797 24.3828 24.4063 24.3828H16.5938C15.9204 24.3828 15.2745 24.1153 14.7984 23.6392C14.3222 23.163 14.0547 22.5172 14.0547 21.8438V21.0625C14.0547 20.3891 14.3222 19.7433 14.7984 19.2671C15.2745 18.791 15.9204 18.5235 16.5938 18.5235H24.4063C25.0797 18.5235 25.7255 18.791 26.2016 19.2671C26.6778 19.7433 26.9453 20.3891 26.9453 21.0625V21.8438ZM28.3125 11.1016C27.6374 11.1024 26.9831 11.3359 26.4601 11.7629C25.9371 12.1898 25.5773 12.784 25.4414 13.4453H15.5586C15.414 12.7333 15.01 12.1004 14.4251 11.6695C13.8401 11.2386 13.1159 11.0405 12.3931 11.1135C11.6702 11.1865 11.0003 11.5255 10.5133 12.0647C10.0263 12.6038 9.75708 13.3047 9.75781 14.0313V21.8438C9.75988 23.6561 10.4808 25.3937 11.7623 26.6752C13.0438 27.9568 14.7814 28.6776 16.5938 28.6797H24.4063C26.2186 28.6776 27.9562 27.9568 29.2377 26.6752C30.5192 25.3937 31.2401 23.6561 31.2422 21.8438V14.0313C31.2422 13.2543 30.9335 12.5091 30.3841 11.9597C29.8347 11.4102 29.0895 11.1016 28.3125 11.1016ZM30.0703 21.8438C30.0685 23.3454 29.4712 24.785 28.4093 25.8469C27.3475 26.9087 25.9079 27.506 24.4063 27.5078H16.5938C15.0921 27.506 13.6525 26.9087 12.5907 25.8469C11.5288 24.785 10.9315 23.3454 10.9297 21.8438V14.0313C10.9297 13.5651 11.1149 13.118 11.4445 12.7883C11.7742 12.4587 12.2213 12.2735 12.6875 12.2735C13.1537 12.2735 13.6008 12.4587 13.9305 12.7883C14.2601 13.118 14.4453 13.5651 14.4453 14.0313C14.4453 14.1867 14.507 14.3357 14.6169 14.4456C14.7268 14.5555 14.8759 14.6172 15.0313 14.6172H25.9688C26.1242 14.6172 26.2732 14.5555 26.3831 14.4456C26.493 14.3357 26.5547 14.1867 26.5547 14.0313C26.5547 13.5651 26.7399 13.118 27.0695 12.7883C27.3992 12.4587 27.8463 12.2735 28.3125 12.2735C28.7787 12.2735 29.2258 12.4587 29.5555 12.7883C29.8851 13.118 30.0703 13.5651 30.0703 14.0313V21.8438ZM17.9609 21.4531C17.9609 21.6463 17.9037 21.8351 17.7964 21.9957C17.6891 22.1563 17.5365 22.2815 17.3581 22.3554C17.1796 22.4293 16.9833 22.4486 16.7939 22.4109C16.6044 22.3733 16.4304 22.2803 16.2938 22.1437C16.1573 22.0071 16.0643 21.8331 16.0266 21.6437C15.9889 21.4542 16.0082 21.2579 16.0822 21.0794C16.1561 20.901 16.2812 20.7485 16.4418 20.6412C16.6024 20.5339 16.7912 20.4766 16.9844 20.4766C17.2434 20.4766 17.4918 20.5795 17.6749 20.7626C17.8581 20.9458 17.9609 21.1941 17.9609 21.4531ZM24.9922 21.4531C24.9922 21.6463 24.9349 21.8351 24.8276 21.9957C24.7203 22.1563 24.5678 22.2815 24.3893 22.3554C24.2109 22.4293 24.0145 22.4486 23.8251 22.4109C23.6357 22.3733 23.4617 22.2803 23.3251 22.1437C23.1885 22.0071 23.0955 21.8331 23.0578 21.6437C23.0201 21.4542 23.0395 21.2579 23.1134 21.0794C23.1873 20.901 23.3125 20.7485 23.4731 20.6412C23.6337 20.5339 23.8225 20.4766 24.0156 20.4766C24.2746 20.4766 24.523 20.5795 24.7062 20.7626C24.8893 20.9458 24.9922 21.1941 24.9922 21.4531Z" fill="white"/>
</svg>
