<svg width="30" height="30" viewBox="0 0 30 30" fill="none" xmlns="http://www.w3.org/2000/svg">
<rect width="30" height="30" rx="5" fill="white"/>
<path fill-rule="evenodd" clip-rule="evenodd" d="M17.5714 22C21.1218 22 24 19.0899 24 15.5C24 11.9101 21.1218 9 17.5714 9C14.7241 9 12.3091 10.8717 11.4643 13.4647V10.95H6L9.05357 20.7H11.4643V17.5353C12.3091 20.1283 14.7241 22 17.5714 22ZM17.5714 17.9375C18.9028 17.9375 19.9821 16.8462 19.9821 15.5C19.9821 14.1538 18.9028 13.0625 17.5714 13.0625C16.24 13.0625 15.1607 14.1538 15.1607 15.5C15.1607 16.8462 16.24 17.9375 17.5714 17.9375Z" fill="#0070F0"/>
</svg>
