<svg width="34" height="34" viewBox="0 0 34 34" fill="none" xmlns="http://www.w3.org/2000/svg">
<rect width="34" height="34" rx="5" fill="white"/>
<path fill-rule="evenodd" clip-rule="evenodd" d="M15.6689 18.2162L18.4058 19.8585V22.9056L15.6562 27.4L15.6689 18.2162Z" fill="#62B22F"/>
<path fill-rule="evenodd" clip-rule="evenodd" d="M13.3985 16.9178L16.1299 18.3622L8.02246 22.8566L10.6687 18.4608L13.3985 16.9178Z" fill="#974995"/>
<path fill-rule="evenodd" clip-rule="evenodd" d="M26.1328 12.7653L20.9153 12.7416L18.4023 11.3627L15.6709 7L26.1328 12.7653Z" fill="#EE7024"/>
<path fill-rule="evenodd" clip-rule="evenodd" d="M15.6718 7L18.4032 11.3627L18.4087 17.3742L15.6553 16.6063L15.6718 7Z" fill="#FBB61B"/>
<path fill-rule="evenodd" clip-rule="evenodd" d="M8 11.3893L10.677 15.8311L10.6683 18.4608L8.02208 22.8566L8 11.3893Z" fill="#5A58A3"/>
<path fill-rule="evenodd" clip-rule="evenodd" d="M8 11.3893L26.0923 21.4928L20.9079 21.526L10.677 15.8311L8 11.3893Z" fill="#2188CB"/>
<path fill-rule="evenodd" clip-rule="evenodd" d="M20.9153 12.7416L26.1329 12.7653L18.4102 17.0985L18.4023 14.1392L20.9153 12.7416Z" fill="#DA0954"/>
<path fill-rule="evenodd" clip-rule="evenodd" d="M18.4058 22.9056L20.9085 21.526L26.0929 21.4929L15.6562 27.4L18.4058 22.9056Z" fill="#037F37"/>
</svg>
